<svg width="677" height="80" viewBox="0 0 677 80" fill="none" xmlns="http://www.w3.org/2000/svg"><path d="m61 25-6-6a25 25 0 0 0-40 21c0 17 13 26 25 26 6 0 12-2 16-5s6-7 7-11H35V37h46c0 5 0 13-3 20-7 15-24 23-38 23C18 80 0 62 0 40 0 17 18 0 41 0c17 0 32 11 37 25H61Zm30-4h13v8c3-5 7-9 16-10v14h-1c-9 0-14 5-14 14v31H91V21Zm44 33c1 9 9 14 16 14s11-3 14-7h14c-3 6-7 11-11 14-5 3-11 5-17 5-17 0-30-14-30-30a30 30 0 0 1 51-22c7 7 10 16 9 26h-46Zm32-10c0-6-6-13-16-13s-15 7-16 13h32Zm34 10c1 9 9 14 17 14 6 0 11-3 13-7h14c-2 6-7 11-11 14-5 3-11 5-17 5-17 0-30-14-30-30a30 30 0 0 1 51-22c7 7 10 16 9 26h-46Zm33-10c-1-6-7-13-17-13s-15 7-16 13h33Zm23-23h13v8c2-5 7-10 18-10 18 1 22 15 22 25v34h-14V47c0-8-3-15-12-15-10 0-13 7-13 15v31h-14V21Zm67-20h20c7 0 12 2 15 4 6 4 8 10 8 16 0 9-5 14-10 16 14 5 15 16 15 20 0 8-4 14-11 18-4 2-9 3-16 3h-21V1Zm8 34h12l9-2c5-3 6-7 6-11 0-6-3-10-6-11l-10-2h-11v26Zm0 36h14l9-2c5-2 8-6 9-13 0-6-4-10-9-13l-10-1h-13v29Zm51-70h8v77h-8V1Zm19 49c0-15 12-29 30-29s29 14 29 29c0 16-11 30-29 30s-30-14-30-30Zm8 0c0 13 9 22 22 22 12 0 22-9 22-22s-10-22-22-22c-13 0-22 9-22 22Zm117 9c-4 12-14 21-28 21-19 0-30-15-30-30 0-16 13-29 30-29 12 0 24 7 28 21h-8c-3-10-12-14-20-14-7 0-11 2-16 6-3 4-6 10-6 16 0 13 10 22 22 22 11 0 18-6 20-13h8Zm11-58h7v44l25-23h10l-27 25 28 31h-9l-27-30v30h-7V1Zm52 51c0 14 12 21 21 21s16-4 20-11h8a29 29 0 0 1-28 18c-19 0-29-16-29-30 0-16 13-29 29-29 8 0 15 3 21 8 6 6 9 14 8 23h-50Zm43-6c-1-9-10-19-22-19s-20 9-21 19h43Zm18-24h8v9c4-8 11-10 17-10v7c-11 0-17 7-17 20v30h-8V22Z" fill="#000021"/></svg>
