<svg width="366" height="366" viewBox="0 0 366 366" fill="none" xmlns="http://www.w3.org/2000/svg">
<path d="M146.474 259.72C131.804 252.7 119.284 242.83 108.764 230.37C99.7136 219.66 92.7036 207.81 88.0736 194.59C82.5336 178.67 80.1536 162.34 81.6636 145.44C82.4336 136.92 84.0336 128.62 86.4236 120.48C91.8636 102.08 102.614 86.07 117.064 73.32C119.004 71.61 120.904 69.86 122.824 68.16C124.754 66.46 127.144 65.35 129.694 65.01C131.314 64.8 132.934 64.58 134.544 64.34C136.224 64.09 137.674 63.08 138.544 61.63C144.234 52.18 151.164 43.71 159.224 36.18C159.754 35.68 160.354 35.24 161.004 34.85C158.144 38.2 155.264 41.51 152.604 45.02C148.824 50.03 145.504 55.32 142.554 60.85C142.254 61.41 141.634 62.04 142.114 62.66C142.574 63.26 143.354 62.89 143.984 62.77C150.714 61.53 157.404 60.04 164.054 58.41C165.434 58.07 166.124 57.2 166.724 56.04C170.354 49.08 174.904 42.79 180.654 37.39C177.234 41.47 174.224 45.82 171.744 50.53C170.924 52.09 170.164 53.69 169.414 55.29C169.214 55.72 168.764 56.22 169.234 56.7C169.594 57.06 170.084 56.81 170.484 56.69C174.794 55.43 179.174 54.36 183.364 52.78C185.754 51.88 187.144 49.37 189.084 47.68C193.534 43.8 198.264 40.36 203.674 37.89C198.164 41.19 193.504 45.47 189.384 50.44C208.744 44.33 226.924 35.74 244.544 25.78C239.734 28.98 234.944 32.21 230.124 35.39C225.204 38.63 220.124 41.6 214.964 44.42C209.834 47.22 204.604 49.85 198.844 52.86C203.494 53.4 207.444 52.58 211.424 52.38C206.764 54.04 201.904 54.52 197.014 54.71C195.174 54.78 193.354 55.19 191.664 55.92C187.204 57.82 182.704 59.63 178.234 61.51C177.724 61.72 176.884 61.72 176.874 62.44C176.864 63.16 177.694 63.19 178.204 63.38C183.794 65.51 189.554 67 195.494 68.09C194.124 68.02 192.744 67.99 191.374 67.86C189.854 67.71 188.334 67.47 186.814 67.24C185.434 67.03 183.174 66.62 181.804 66.33C180.414 66.04 179.004 65.75 177.754 65.16C174.204 63.46 170.924 64.05 167.374 65.36C160.064 68.08 152.554 70.22 145.004 72.21C144.444 72.36 143.844 72.39 143.054 73.19C155.914 78.87 169.104 82.15 182.874 83.65C180.964 83.64 179.064 83.66 177.154 83.6C175.164 83.54 173.184 83.43 171.204 83.28C159.294 82.36 147.854 79.41 136.714 75.19C135.954 74.9 135.214 74.64 134.364 74.83C126.034 76.71 123.284 78.85 114.834 80.11C114.474 80.16 111.744 80.75 110.994 80.98C115.774 84.05 118.004 85.85 123.204 87.9C142.574 95.51 162.514 97.86 183.024 93.75C194.894 91.37 206.014 86.95 216.334 80.61C242.594 64.46 260.254 41.24 271.714 12.96C272.244 11.66 272.754 10.36 273.204 9.04002C273.404 8.46002 274.004 7.77001 273.374 7.22001C272.874 6.78001 272.264 7.31 271.734 7.52C263.824 10.55 255.604 12.12 247.194 12.7C238.654 13.29 230.124 12.89 221.624 12C207.284 10.5 192.994 8.33002 178.514 8.60002C166.234 8.83002 154.354 10.84 143.334 16.67C134.304 21.45 127.524 28.57 122.044 37.04C116.464 45.64 112.784 55.08 109.814 64.84C109.794 64.89 109.794 64.94 109.774 64.99C109.544 65.29 109.324 65.59 109.114 65.9C97.1336 82.59 85.6636 100.53 78.2436 119.84C78.2336 119.85 78.2336 119.87 78.2236 119.88C78.1236 119.44 78.0337 119 77.9037 118.56C75.7037 110.73 71.3137 104.22 65.9037 98.31C59.5237 91.35 52.0736 85.57 44.9136 79.47C40.6636 75.85 36.6536 72 33.0836 67.7C29.5736 63.46 26.6136 58.88 24.4936 53.78C24.3536 53.44 24.3236 52.91 23.8936 52.87C23.3536 52.82 23.3036 53.41 23.1136 53.77C22.6936 54.58 22.3136 55.41 21.9336 56.24C14.6436 72.34 11.4336 88.96 13.7336 106.26C14.8336 114.5 19.0637 127.14 23.4637 134.19C30.7537 145.87 40.8836 154.32 53.2936 160.1C56.5936 161.64 58.4536 161.88 62.0536 162.76C62.2236 162.31 62.0836 162.11 61.9436 161.92C58.7336 157.36 57.3036 153.74 54.4436 148.95C54.1536 148.46 53.6937 148.23 53.2137 148C46.2137 144.63 39.6736 140.56 33.8836 135.34C32.9236 134.47 31.9736 133.58 31.0536 132.67C30.1636 131.8 29.3236 130.89 28.4536 129.99C35.3536 135.82 42.8336 140.58 51.3036 144.1C51.3236 143.36 51.0736 143.06 50.8936 142.74C48.4336 138.28 46.0736 133.77 44.0736 129.09C43.1036 126.82 41.9036 125.01 39.5036 124.1C38.6636 123.78 37.8936 123.24 37.1336 122.72C36.3936 122.21 35.2036 121.34 34.4936 120.79C33.6836 120.17 32.8736 119.55 32.1036 118.88C31.4236 118.29 30.7936 117.65 30.1436 117.04C33.3336 119.36 36.6236 121.41 40.1436 123.09C40.4636 123.24 40.8536 123.62 41.1836 123.29C41.5136 122.96 41.1436 122.57 41.0136 122.23C39.8936 119.29 38.7336 116.37 37.6336 113.42C37.2036 112.28 36.5837 111.21 35.7737 110.3C33.6637 107.91 31.7036 105.39 30.3936 102.45C32.0936 104.42 33.4836 106.66 35.8236 108.61C34.6536 104.54 33.5436 100.88 32.5636 97.2C31.5736 93.49 30.6936 89.76 30.0136 85.98C29.3436 82.27 28.7136 78.56 28.0636 74.85C31.2836 87.65 35.3937 100.11 41.2137 112C41.7137 107.82 41.6337 103.7 40.7137 99.61C41.9737 103.28 42.4836 107.06 42.6436 110.9C42.7136 112.57 42.1536 114.36 42.8036 115.89C43.9436 118.58 45.4136 121.13 46.7536 123.73C46.8836 123.97 46.9836 124.32 47.3136 124.33C47.7536 124.34 47.7837 123.9 47.9037 123.61C48.3237 122.54 48.7336 121.46 49.1036 120.37C50.2136 117.08 50.9136 113.7 51.3036 110.25C51.3336 115.39 50.4136 120.37 48.7536 125.22C48.4736 126.03 48.3736 126.75 48.8336 127.55C51.0536 131.43 53.3536 135.25 55.7936 138.99C56.0236 139.34 56.1936 139.88 56.6836 139.82C57.1936 139.76 57.2036 139.19 57.3336 138.8C58.6236 134.92 59.6336 130.97 60.2936 126.93C60.7636 124.1 61.0236 121.25 61.3236 118.39C61.4336 118.87 61.4936 119.35 61.4936 119.83C61.5636 127.03 60.6837 134.1 58.7737 141.04C58.4837 142.11 58.6536 143.25 59.2936 144.16C62.1836 148.25 65.2136 152.24 68.3136 156.18C69.6236 161.15 70.3636 166.29 70.3036 171.66C70.2536 175.32 70.9836 178.98 71.5636 182.62C73.2836 193.58 76.6136 204.06 81.0736 214.26C86.0736 225.72 92.8636 236.01 101.114 245.29C109.964 255.21 120.124 263.66 131.824 270.22C142.174 276.02 152.844 280.34 163.894 283.09C164.774 278.01 165.764 272.6 166.774 267.25C159.824 265.37 153.064 262.87 146.474 259.72Z" fill="url(#paint0_linear_2_64)"/>
<path d="M314.864 161.75C313.664 161.75 312.644 162.63 312.454 163.82C309.644 181.3 302.564 204.2 293.444 218.09C287.704 226.82 280.964 234.74 273.024 241.69C265.594 248.21 257.634 253.93 248.834 258.29C236.784 264.23 224.374 268.32 211.524 270.16L199.004 286.48C199.314 286.47 199.614 286.46 199.934 286.43C211.774 285.77 223.184 283.46 234.334 279.61C251.434 273.7 266.454 264.36 279.414 251.78C289.384 242.1 297.314 230.94 303.594 218.53C310.884 204.14 315.764 181.92 317.304 164.43C317.424 162.98 316.304 161.75 314.864 161.75Z" fill="url(#paint1_linear_2_64)"/>
<path d="M307.404 158.34C306.984 158.35 306.584 158.13 306.354 157.76C306.144 157.42 306.124 157 306.284 156.63L307.894 153.37C296.534 146.56 284.094 143.52 270.724 144.64C258.074 145.71 246.354 150.3 234.864 155.44C219.494 162.34 204.764 170.66 188.904 176.48C174.404 181.78 159.574 184.74 144.004 183.06C129.674 181.5 116.604 176.6 104.334 169.19C97.5037 165.06 90.9737 160.47 84.5337 155.09C83.1137 175.95 96.5837 215.7 128.164 239.53C141.594 249.67 157.254 256.58 173.774 259.89C173.574 260.91 173.374 261.96 173.174 263.02C172.814 264.84 172.464 266.67 172.114 268.51C171.104 273.86 170.124 279.25 169.234 284.28C167.314 295.34 165.934 304.67 166.084 308.11C166.084 308.11 166.084 319.21 175.104 308.56L191.964 286.6L204.004 270.93H204.014L210.084 263.02L211.554 261.1C226.864 259.04 242.054 253.82 256.124 245.19C289.714 224.57 307.894 187.23 309.614 158.3L307.404 158.34ZM270.714 184.81C265.274 184.81 260.964 179.9 262.004 174.24C262.644 170.78 265.394 167.96 268.844 167.25C274.554 166.07 279.604 170.42 279.604 175.93C279.594 180.84 275.604 184.81 270.714 184.81Z" fill="url(#paint2_linear_2_64)"/>
<path d="M325.984 147.07C334.66 147.07 341.694 140.036 341.694 131.36C341.694 122.684 334.66 115.65 325.984 115.65C317.307 115.65 310.274 122.684 310.274 131.36C310.274 140.036 317.307 147.07 325.984 147.07Z" fill="url(#paint3_linear_2_64)"/>
<path d="M344.764 111.67C339.834 110.67 336.644 105.86 337.634 100.93C338.634 96 343.444 92.8 348.374 93.8C353.304 94.8 356.504 99.61 355.504 104.54C354.504 109.47 349.684 112.67 344.764 111.67ZM348.234 94.49C343.684 93.57 339.244 96.52 338.324 101.07C337.404 105.62 340.354 110.06 344.904 110.98C349.454 111.9 353.894 108.95 354.814 104.4C355.724 99.86 352.774 95.41 348.234 94.49Z" fill="url(#paint4_linear_2_64)"/>
<path d="M319.484 91.16C322.494 91.16 324.934 88.7199 324.934 85.71C324.934 82.7 322.494 80.26 319.484 80.26C316.474 80.26 314.034 82.7 314.034 85.71C314.034 88.7199 316.474 91.16 319.484 91.16Z" fill="url(#paint5_linear_2_64)"/>
<path d="M344.454 82.16C348.391 82.16 351.584 78.9678 351.584 75.03C351.584 71.0922 348.391 67.9 344.454 67.9C340.516 67.9 337.324 71.0922 337.324 75.03C337.324 78.9678 340.516 82.16 344.454 82.16Z" fill="url(#paint6_linear_2_64)"/>
<path d="M323.264 70.05C319.224 69.23 316.594 65.28 317.414 61.24C318.234 57.2 322.184 54.57 326.224 55.39C330.264 56.21 332.894 60.16 332.074 64.2C331.254 68.25 327.304 70.87 323.264 70.05ZM326.084 56.08C322.424 55.34 318.844 57.72 318.104 61.38C317.364 65.04 319.744 68.62 323.404 69.36C327.064 70.1 330.644 67.72 331.384 64.06C332.124 60.4 329.744 56.82 326.084 56.08Z" fill="url(#paint7_linear_2_64)"/>
<path opacity="0.15" d="M183.054 359.95C248.372 359.95 301.324 353.333 301.324 345.17C301.324 337.007 248.372 330.39 183.054 330.39C117.735 330.39 64.7837 337.007 64.7837 345.17C64.7837 353.333 117.735 359.95 183.054 359.95Z" fill="white"/>
<defs>
<linearGradient id="paint0_linear_2_64" x1="137.102" y1="23.4243" x2="188.263" y2="285.004" gradientUnits="userSpaceOnUse">
<stop stop-color="#97C318"/>
<stop offset="1" stop-color="#29ABE2"/>
</linearGradient>
<linearGradient id="paint1_linear_2_64" x1="337.321" y1="164.394" x2="206.393" y2="300.823" gradientUnits="userSpaceOnUse">
<stop stop-color="#97C318"/>
<stop offset="1" stop-color="#29ABE2"/>
</linearGradient>
<linearGradient id="paint2_linear_2_64" x1="129.267" y1="161.07" x2="246.992" y2="239.186" gradientUnits="userSpaceOnUse">
<stop stop-color="#97C318"/>
<stop offset="1" stop-color="#29ABE2"/>
</linearGradient>
<linearGradient id="paint3_linear_2_64" x1="310.269" y1="131.359" x2="341.701" y2="131.359" gradientUnits="userSpaceOnUse">
<stop stop-color="#97C318"/>
<stop offset="1" stop-color="#29ABE2"/>
</linearGradient>
<linearGradient id="paint4_linear_2_64" x1="337.448" y1="102.736" x2="355.68" y2="102.736" gradientUnits="userSpaceOnUse">
<stop stop-color="#97C318"/>
<stop offset="1" stop-color="#29ABE2"/>
</linearGradient>
<linearGradient id="paint5_linear_2_64" x1="314.032" y1="85.7061" x2="324.938" y2="85.7061" gradientUnits="userSpaceOnUse">
<stop stop-color="#97C318"/>
<stop offset="1" stop-color="#29ABE2"/>
</linearGradient>
<linearGradient id="paint6_linear_2_64" x1="337.327" y1="75.028" x2="351.582" y2="75.028" gradientUnits="userSpaceOnUse">
<stop stop-color="#97C318"/>
<stop offset="1" stop-color="#29ABE2"/>
</linearGradient>
<linearGradient id="paint7_linear_2_64" x1="317.265" y1="62.7233" x2="332.224" y2="62.7233" gradientUnits="userSpaceOnUse">
<stop stop-color="#97C318"/>
<stop offset="1" stop-color="#29ABE2"/>
</linearGradient>
</defs>
</svg>
